<svg width="130" height="22" viewBox="0 0 130 22" fill="none" xmlns="http://www.w3.org/2000/svg">
<path d="M86.0141 20.6624L76.5944 20.6618L76.5957 1.49796L86.0153 1.49856L86.0151 4.56366L80.5003 4.56331L80.5 9.50614L86.0149 7.26979L86.0147 10.6939L80.4998 12.9578L80.4995 17.5969L86.0143 17.5973L86.0141 20.6624Z" fill="white"/>
<path d="M106.948 9.22992L106.948 4.53562L104.071 4.53544L104.07 10.3895L106.948 9.22992ZM110.853 10.9974L107.975 12.1846L112.428 20.6623L108.351 20.662L104.653 13.5651L104.07 13.8136L104.07 20.6617L100.165 20.6615L100.166 1.4977L107.668 1.49818C109.654 1.4983 110.853 2.43724 110.853 4.12167L110.853 10.9974Z" fill="white"/>
<path d="M98.4801 20.6616L94.5752 20.6614L94.5757 12.543L91.6983 13.7302L91.6979 20.6612L87.793 20.661L87.794 4.12044C87.7941 2.43602 88.9588 1.49723 90.9455 1.49736L95.2958 1.49763C97.2825 1.49776 98.4812 2.4367 98.4811 4.12112L98.4801 20.6616ZM94.5759 9.17415L94.5762 4.53507L91.6989 4.53489L91.6985 10.3061L94.5759 9.17415Z" fill="white"/>
<path d="M129.946 20.6542L126.041 20.654L126.041 12.5356L123.164 13.7228L123.164 20.6538L119.259 20.6535L119.26 4.11302C119.26 2.42859 120.425 1.48981 122.411 1.48993L126.761 1.49021C128.748 1.49033 129.947 2.42927 129.947 4.1137L129.946 20.6542ZM126.042 9.16673L126.042 4.52765L123.165 4.52747L123.164 10.2987L126.042 9.16673Z" fill="white"/>
<path fill-rule="evenodd" clip-rule="evenodd" d="M74.9404 10.4662L74.9399 18.0047C74.9398 19.7996 73.8094 20.6555 71.4459 20.6554L64.2527 20.6549L64.2539 1.4911L71.7554 1.49158C73.7421 1.4917 74.9409 2.43064 74.9408 4.11507L74.9405 8.14665C74.9404 9.38925 74.4609 10.1348 73.262 10.4661L74.9404 10.4662ZM71.1729 4.44619L71.1727 8.31209L68.0213 9.5545L68.0216 4.44599L71.1729 4.44619ZM71.1724 11.5153L71.1721 17.6731L68.0207 17.6729L68.0211 12.7853L71.1724 11.5153Z" fill="white"/>
<path d="M117.001 20.6624L117.001 1.33199L113.634 2.99224L113.704 20.6624L117.001 20.6624Z" fill="white"/>
<path fill-rule="evenodd" clip-rule="evenodd" d="M35.985 18.0076L35.9855 10.4691L34.3071 10.469C35.506 10.1377 35.9856 9.39214 35.9857 8.14953L35.9859 4.11795C35.986 2.43352 33.1963 1.61329 32.8005 1.49446C32.4047 1.37563 27.9918 1.55419 25.2977 2.19614L25.2978 19.697C25.3042 20.2126 32.4984 20.7386 32.491 20.6582C34.8545 20.6584 35.9849 19.8024 35.985 18.0076ZM32.218 4.44907L32.2178 8.31497L29.0664 9.55738L29.0667 4.44887L32.218 4.44907ZM32.2176 11.5181L32.2172 17.676L29.0659 17.6758L29.0662 12.7882L32.2176 11.5181Z" fill="#68B673"/>
<path fill-rule="evenodd" clip-rule="evenodd" d="M49.0944 20.6572L45.1895 20.6569L45.19 12.5385L42.3127 13.7257L42.3123 20.6567L38.4074 20.6565L38.4084 4.11599C38.4085 2.43156 39.5732 1.49277 41.5599 1.4929L45.9101 1.49318C47.8968 1.4933 49.0956 2.43224 49.0955 4.11666L49.0944 20.6572ZM45.1905 4.53062L45.1902 9.16969L42.3129 10.3017L42.3133 4.53043L45.1905 4.53062Z" fill="#68B673"/>
<path fill-rule="evenodd" clip-rule="evenodd" d="M61.4668 10.9941L58.5895 12.1813L63.0419 20.659L58.9657 20.6587L55.2668 13.5618L54.6845 13.8103L54.6841 20.6585L50.7792 20.6582L50.7804 1.49441L58.2819 1.49489C60.2686 1.49501 61.4674 2.43395 61.4673 4.11838L61.4668 10.9941ZM57.5623 4.53233L57.562 9.22663L54.6847 10.3862L54.6851 4.53215L57.5623 4.53233Z" fill="#68B673"/>
<path fill-rule="evenodd" clip-rule="evenodd" d="M1.8165 4.93827C1.81644 5.76685 2.1459 6.56151 2.73238 7.14743C3.31886 7.73336 4.11432 8.06256 4.94379 8.06261C5.77325 8.06267 6.56876 7.73357 7.15531 7.14771C7.74187 6.56186 8.07142 5.76725 8.07147 4.93867C8.07153 4.1101 7.74207 3.31544 7.15559 2.72951C6.56911 2.14359 5.77364 1.81439 4.94418 1.81433C4.11472 1.81428 3.31921 2.14338 2.73266 2.72923C2.1461 3.31508 1.81655 4.1097 1.8165 4.93827ZM4.94367 9.87663C3.88525 9.87644 2.85484 9.53692 2.00403 8.90802C1.15322 8.27912 0.526938 7.39404 0.217326 6.383C-0.0922855 5.37196 -0.0688788 4.28835 0.284103 3.2916C0.637084 2.29484 1.301 1.43758 2.17818 0.845918C3.05535 0.25426 4.09947 -0.0405458 5.15691 0.00487441C6.21435 0.0502947 7.22928 0.433543 8.05237 1.09823C8.87547 1.76292 9.46327 2.67396 9.7293 3.6973C9.99532 4.72064 9.92553 5.80226 9.53018 6.78301L11.4752 8.08117C11.4609 8.12661 11.4475 8.1723 11.4348 8.21822L11.124 9.32677L10.4117 9.8024L8.40619 8.46393C7.5143 9.33662 6.29152 9.87672 4.94367 9.87663ZM1.81573 17.062C1.81578 16.2334 2.14533 15.4388 2.73189 14.8529C3.31844 14.2671 4.11395 13.938 4.94341 13.938C5.77287 13.9381 6.56834 14.2673 7.15482 14.8532C7.7413 15.4391 8.07076 16.2338 8.0707 17.0624C8.07065 17.8909 7.7411 18.6855 7.15454 19.2714C6.56799 19.8572 5.77248 20.1863 4.94302 20.1863C4.11356 20.1862 3.31809 19.857 2.73161 19.2711C2.14513 18.6852 1.81567 17.8905 1.81573 17.062ZM4.94353 12.124C3.88604 12.124 2.85644 12.4628 2.00595 13.0906C1.15546 13.7184 0.528912 14.6021 0.218332 15.6118C-0.0922474 16.6216 -0.0704886 17.7043 0.280412 18.7008C0.631314 19.6973 1.29286 20.5551 2.16789 21.1483C3.04292 21.7414 4.0853 22.0387 5.14194 21.9963C6.19858 21.954 7.21378 21.5743 8.03842 20.913C8.86307 20.2517 9.45369 19.3437 9.72355 18.3223C9.99341 17.3009 9.92827 16.22 9.53771 15.2384L30.1659 1.50056L28.247 1.6586C25.541 1.94286 22.9205 2.7709 20.5431 4.09292L14.3384 7.53916C14.1054 7.66917 13.9005 7.84406 13.7356 8.05372C13.5708 8.26337 13.4492 8.50361 13.3779 8.76054L12.8673 10.5866L8.42201 13.5553C7.49765 12.6374 6.24689 12.1227 4.94353 12.124ZM14.3137 14.4727L14.338 14.4868L20.5423 17.9339C22.9195 19.2562 25.5399 20.0846 28.2458 20.3692L27.9687 19.0071L25.3466 17.362L17.6754 12.2256L14.3137 14.4727Z" fill="#68B673"/>
</svg>
